<?xml version="1.0" encoding="UTF-8"?><svg id="a" xmlns="http://www.w3.org/2000/svg" viewBox="0 0 488 488"><defs><style>.b{fill:none;}.c{fill:#f9832a;}</style></defs><path class="b" d="M0,488V0h488v488H0ZM312.22,109.95c6.37,3.16,12.54,2.16,16.86-3.51l8.69-13.14c3.99-6.03,9.28-10.25,16.17-14.19-63.08-41.62-147.19-42.46-211.19-1.53,6.86,4.12,12.24,8.82,16.65,15.01l9.8,13.8c4.01,3.55,9.99,4.72,15.14,2.31,40.47-18.98,87.56-18.78,127.88,1.25h0ZM131.98,111.87c2.67-.47,5.03,2.25,6.44,4.36,11.83,17.7,21.9,36.21,31.66,55.15,1.92,3.73,4.14,7.18,7.19,9.74,3.77,3.17,8.91,2.76,12.61-.03,3.44-2.59,4.4-7.92,2.17-12.37-5.34-10.66-10.93-21.06-17.68-31.08l-24.96-37c-5.02-7.44-15.88-17.63-25.21-10.05-44.07,35.8-70.35,88.35-73.5,145.03-.19,3.45.16,6.53,2.8,8.73,2.13,1.77,5.63,2.88,8.69,1.74,8.16-3.03,16.3-5.14,24.7-7.21,5.93-1.46,10.16-5.77,10.72-11.83,1.44-15.6,5.54-30.46,12.37-44.5,3.02-6.21,4.38-12.11,5.22-18.95,1.89-15.44,5.43-30.48,10.75-45.01,1.03-2.8,2.98-6.22,6.04-6.75v.03ZM378.89,216.24c4.54,3.15,8.87-4.27,13.14-3.19,4.91,1.25,5.22,25.45,5.36,30.5.2,7.01,3.86,12.89,11.06,13.95,7.6,1.11,15.27,1.46,22.99,1.04,7.06-.38,12.6-5.26,12.48-12.64-.74-46.81-15.55-90.19-45.21-126.62-8.29-10.18-17.02-19.48-27.37-27.51-11.01-8.55-23.52,8.84-28.41,17.17-9.43,16.06-19.21,31.35-29.58,46.83-3.75,5.6-7.01,11.27-9.55,17.31-1.88,4.47,0,9.34,3.54,11.73,3.83,2.6,8.69,1.88,12.09-1.43,2.45-2.39,4.18-5.01,5.8-8.21,10.24-20.24,21.38-39.85,34.38-58.35,1.37-1.95,3.66-3.09,5.47-2.87,2.01.25,3.34,1.91,4.24,3.91,11.78,26.41,9.44,60.1,6.91,88.27-.3,3.34-.24,8.08,2.68,10.1h-.02ZM282.1,293.05c25.55-14.13,33.41-44.46,24.58-70.74-8.15-24.27-31.37-34.91-55.57-36.46-15.4-.99-30.55-.07-45.75,2.52-7.56,1.28-13.25,8-13.25,15.81l-.03,155.6c0,7.15,6.88,12.37,12.98,12.01,6.78-.4,11.99-5.94,12.01-12.76l.14-47.18c.02-5.4,3.35-9.02,8.82-8.95,19.94.26,38.23.02,56.08-9.85h0ZM123.19,258.11c7.32.03,13.68.92,20.45,1.7,2.99.34,5.14-1.49,5.33-4.11.21-2.92-1.42-4.75-4.59-5.19-31.32-4.35-63.23.31-92.1,13.09-2.33,1.03-2.4,4.51-1.68,6.03.95,2.03,3.72,3.06,6.14,2.05,21.01-8.77,43.19-13.67,66.46-13.57h-.01ZM438.28,270.44c-10.38.26-20.02.53-30.12-.62-17.49-1.99-34.08-6.48-50.54-12.26-2.66-.93-5.42.42-6.15,2.64-.69,2.08,0,5.02,2.44,5.9,28.06,10.18,55.63,15.79,85.58,13.45,3.06-.24,4.64-2.6,4.34-5.16s-2.44-4.02-5.54-3.95h0ZM138.58,293.15c2.42-.04,4.43-1.4,5.01-3.26.43-1.38.23-5.01-1.89-5.16-22.38-1.59-44.62,5.69-61.28,20.55-2.11,1.88-2.33,4.49-.9,6.56,1.21,1.76,4.7,2.46,6.55.71,14.18-13.39,33.29-19.06,52.51-19.4h0ZM413.38,306.14c-20.21,2.93-34.4,1.2-53.66-4.42-2.63-.77-5.15.56-5.85,2.94-.61,2.07.16,4.89,2.82,5.71,18.55,5.73,38.02,7.6,57.21,4.59,2.74-.43,4.18-2.24,4.1-4.69-.07-2.13-1.68-4.56-4.62-4.13h0ZM144.49,335.5c2.66,0,4.91-1.07,5.35-3.53.34-1.85-.26-5.27-3.03-5.4-16.82-.78-33.55,2.27-48.72,9.58-5.71,2.75-10.7,6.12-15.64,9.77-2.14,1.58-2.17,4.77-.97,6.45s4.54,2.48,6.43,1c16.73-13.03,35.47-17.8,56.58-17.86h0ZM404.83,350.62c-32.49,5.18-59.11-1.99-87.12-17.31-2.44-1.33-5.26-.4-6.42,1.75-1.09,2.03-.65,4.71,1.54,6.08,5.92,3.71,11.9,6.38,18.36,9.21,23.85,10.47,49.81,13.69,75.52,9.34,2.88-.49,4.38-2.76,3.97-5.26s-2.68-4.33-5.85-3.82h0ZM382,373.73c-13.31-.33-25.84-2.1-38.35-5.87-5.51-1.66-11.23-.91-16.06,2.16-39.92,25.38-89.22,30.73-133.45,13.76-18.46-7.08-35.21-17.15-49.69-30.65-3.81-3.55-8.7-5.23-13.88-4.55-10.25,1.34-20.02,4.76-28.67,10.2-2.72,1.71-4.39,4.61-4.75,7.25-.4,2.92.56,6.02,2.48,8.19,45.26,51.18,113.58,75.37,181.04,63.71,39.94-6.9,76.91-26.35,105.64-55,1.74-1.73,1.91-4.14,1.11-6s-2.82-3.14-5.41-3.2h0Z"/><path class="c" d="M382,373.73c2.59.06,4.63,1.4,5.41,3.2s.63,4.26-1.11,6c-28.73,28.65-65.7,48.1-105.64,55-67.46,11.66-135.79-12.54-181.04-63.71-1.92-2.17-2.88-5.27-2.48-8.19.36-2.64,2.03-5.53,4.75-7.25,8.65-5.44,18.43-8.86,28.67-10.2,5.18-.68,10.07,1,13.88,4.55,14.48,13.5,31.23,23.57,49.69,30.65,44.23,16.97,93.54,11.61,133.45-13.76,4.83-3.07,10.55-3.82,16.06-2.16,12.51,3.76,25.05,5.54,38.35,5.87h0Z"/><path class="c" d="M282.1,293.05c-17.85,9.87-36.13,10.11-56.08,9.85-5.46-.07-8.8,3.55-8.82,8.95l-.14,47.18c-.02,6.82-5.23,12.36-12.01,12.76-6.1.36-12.98-4.86-12.98-12.01l.03-155.6c0-7.8,5.69-14.52,13.25-15.81,15.2-2.58,30.35-3.5,45.75-2.52,24.2,1.55,47.42,12.19,55.57,36.46,8.83,26.28.97,56.61-24.58,70.74h0ZM238.29,281.55c15.89.25,32.98-3.69,40.9-18.43,6.8-12.66,6.8-28.57-.94-40.83-10.29-16.29-35.54-16.95-52.55-14.56-4.63.65-8.48,4.51-8.48,9.57l-.05,53.9c0,5.65,3.79,9.6,9.08,10.07,3.97.36,7.72.21,12.05.28h-.01Z"/><path class="c" d="M378.89,216.24c-2.92-2.02-2.98-6.76-2.68-10.1,2.53-28.17,4.87-61.87-6.91-88.27-.89-2-2.23-3.67-4.24-3.91-1.81-.22-4.1.92-5.47,2.87-13,18.5-24.14,38.11-34.38,58.35-1.62,3.2-3.35,5.82-5.8,8.21-3.39,3.31-8.25,4.03-12.09,1.43-3.54-2.39-5.41-7.26-3.54-11.73,2.53-6.05,5.79-11.71,9.55-17.31,10.37-15.47,20.14-30.77,29.58-46.83,4.89-8.33,17.4-25.72,28.41-17.17,10.35,8.03,19.08,17.33,27.37,27.51,29.66,36.42,44.47,79.81,45.21,126.62.12,7.38-5.42,12.26-12.48,12.64-7.72.42-15.39.07-22.99-1.04-7.2-1.05-10.86-6.94-11.06-13.95-.14-5.05-.45-29.25-5.36-30.5-4.26-1.08-8.59,6.34-13.14,3.19h.02Z"/><path class="c" d="M312.22,109.95c-40.32-20.03-87.41-20.23-127.88-1.25-5.14,2.41-11.13,1.24-15.14-2.31l-9.8-13.8c-4.4-6.2-9.79-10.9-16.65-15.01,64-40.93,148.11-40.08,211.19,1.53-6.9,3.94-12.18,8.15-16.17,14.19l-8.69,13.14c-4.32,5.66-10.49,6.67-16.86,3.51h0Z"/><path class="c" d="M131.98,111.87c-3.06.53-5.01,3.95-6.04,6.75-5.32,14.53-8.86,29.57-10.75,45.01-.84,6.85-2.2,12.74-5.22,18.95-6.83,14.03-10.93,28.9-12.37,44.5-.56,6.06-4.78,10.37-10.72,11.83-8.4,2.07-16.54,4.17-24.7,7.21-3.06,1.14-6.56.03-8.69-1.74-2.64-2.19-2.99-5.28-2.8-8.73,3.15-56.68,29.44-109.23,73.5-145.03,9.34-7.58,20.2,2.61,25.21,10.05l24.96,37c6.76,10.02,12.34,20.42,17.68,31.08,2.23,4.44,1.27,9.78-2.17,12.37-3.7,2.78-8.84,3.19-12.61.03-3.05-2.56-5.27-6.01-7.19-9.74-9.76-18.94-19.82-37.46-31.66-55.15-1.41-2.11-3.77-4.82-6.44-4.36v-.03Z"/><path class="c" d="M404.83,350.62c3.17-.51,5.44,1.28,5.85,3.82s-1.09,4.77-3.97,5.26c-25.71,4.35-51.67,1.12-75.52-9.34-6.46-2.84-12.44-5.51-18.36-9.21-2.18-1.37-2.63-4.05-1.54-6.08,1.16-2.15,3.98-3.09,6.42-1.75,28,15.32,54.63,22.49,87.12,17.31h0Z"/><path class="c" d="M123.19,258.11c-23.27-.1-45.44,4.8-66.46,13.57-2.42,1.01-5.19-.02-6.14-2.05-.71-1.52-.65-5,1.68-6.03,28.87-12.78,60.79-17.44,92.1-13.09,3.17.44,4.8,2.27,4.59,5.19-.19,2.62-2.35,4.45-5.33,4.11-6.77-.78-13.13-1.67-20.45-1.7h.01Z"/><path class="c" d="M438.28,270.44c3.1-.08,5.24,1.35,5.54,3.95s-1.28,4.92-4.34,5.16c-29.95,2.34-57.52-3.27-85.58-13.45-2.44-.88-3.13-3.82-2.44-5.9.73-2.21,3.49-3.57,6.15-2.64,16.47,5.77,33.05,10.26,50.54,12.26,10.11,1.15,19.74.88,30.12.62h0Z"/><path class="c" d="M144.49,335.5c-21.11.06-39.85,4.84-56.58,17.86-1.9,1.48-5.21.71-6.43-1s-1.17-4.88.97-6.45c4.95-3.65,9.94-7.02,15.64-9.77,15.17-7.31,31.91-10.36,48.72-9.58,2.77.13,3.37,3.55,3.03,5.4-.45,2.46-2.69,3.53-5.35,3.53h0Z"/><path class="c" d="M138.58,293.15c-19.22.34-38.33,6.01-52.51,19.4-1.85,1.75-5.34,1.05-6.55-.71-1.43-2.07-1.21-4.68.9-6.56,16.66-14.85,38.91-22.14,61.28-20.55,2.11.15,2.32,3.78,1.89,5.16-.58,1.86-2.59,3.22-5.01,3.26h0Z"/><path class="c" d="M413.38,306.14c2.94-.43,4.55,2,4.62,4.13.08,2.45-1.36,4.26-4.1,4.69-19.19,3.01-38.66,1.14-57.21-4.59-2.66-.82-3.43-3.64-2.82-5.71.71-2.38,3.23-3.7,5.85-2.94,19.25,5.62,33.44,7.35,53.66,4.42h0Z"/></svg>